<?xml version="1.0" standalone="no"?>
<!DOCTYPE svg PUBLIC "-//W3C//DTD SVG 20010904//EN"
 "http://www.w3.org/TR/2001/REC-SVG-20010904/DTD/svg10.dtd">
<svg version="1.0" xmlns="http://www.w3.org/2000/svg"
 width="188.000000pt" height="242.000000pt" viewBox="0 0 188.000000 242.000000"
 preserveAspectRatio="xMidYMid meet">

<g transform="translate(0.000000,242.000000) scale(0.100000,-0.100000)"
fill="#000000" stroke="none">
<path d="M807 2292 c-29 -31 -47 -43 -67 -45 -11 -1 -20 -5 -20 -9 0 -4 -11
-8 -25 -8 -14 0 -28 -7 -31 -15 -4 -8 -13 -15 -20 -15 -8 0 -26 -7 -39 -16
-13 -9 -30 -17 -37 -18 -23 -3 -78 -40 -78 -52 0 -7 -7 -14 -15 -18 -8 -3 -15
-12 -15 -20 0 -8 -6 -19 -13 -23 -37 -24 -74 -178 -57 -238 5 -16 11 -66 13
-111 3 -44 10 -90 16 -102 6 -12 9 -22 6 -22 -3 0 -1 -9 5 -20 10 -19 9 -20
-8 -9 -11 7 -27 9 -37 6 -14 -6 -16 -17 -13 -70 5 -72 25 -205 39 -259 10 -39
41 -57 74 -44 10 4 17 -3 20 -22 4 -15 17 -56 31 -90 20 -53 24 -80 24 -155
-1 -58 4 -107 13 -132 15 -42 86 -176 98 -185 3 -3 9 -14 13 -25 13 -41 42
-66 93 -79 38 -10 54 -11 63 -2 8 8 9 6 4 -9 -7 -18 -6 -19 9 -6 10 8 20 11
24 7 3 -3 1 -6 -5 -6 -13 0 -8 -19 16 -67 l16 -32 12 29 c8 18 26 35 47 43 18
8 57 35 86 61 28 25 56 46 61 46 5 0 28 28 51 61 56 83 99 206 99 284 0 71
-15 106 -25 59 -4 -16 -9 -37 -12 -48 -3 -11 -1 -16 6 -12 5 4 1 -16 -11 -45
-19 -45 -41 -69 -53 -57 -2 2 2 22 10 44 8 23 15 52 17 65 2 13 13 40 24 59
19 32 36 80 33 96 0 4 4 10 9 13 6 4 13 20 16 36 2 17 5 31 6 33 2 1 3 5 4 10
12 52 18 64 29 53 6 -6 18 -11 26 -10 10 0 7 4 -6 9 -13 5 -23 16 -23 25 0 12
4 13 18 6 21 -11 67 13 57 30 -4 5 1 9 9 9 9 0 16 5 16 11 0 5 -4 8 -9 4 -5
-3 0 12 12 34 12 22 25 37 28 35 4 -2 5 4 3 14 -3 9 -1 42 3 72 5 30 7 65 5
77 -4 28 -31 38 -51 18 -14 -13 -13 -15 7 -15 27 0 37 -33 27 -96 -8 -59 -15
-75 -26 -68 -5 3 -6 -2 -3 -10 8 -20 -19 -47 -35 -37 -10 6 -9 12 3 24 9 9 12
18 7 21 -4 3 -16 -3 -25 -13 -15 -16 -15 -19 -1 -31 21 -17 19 -43 -5 -58 -17
-10 -20 -10 -20 3 0 8 -3 15 -8 15 -4 0 -6 19 -5 43 l2 42 -15 -55 c-9 -30
-17 -65 -18 -77 -1 -22 -16 -34 -16 -13 0 6 -7 10 -16 10 -14 0 -15 -2 -3 -17
13 -15 12 -16 -8 -11 -24 6 -32 -7 -10 -15 6 -3 -6 -4 -29 -2 l-41 4 2 -53 c2
-39 -2 -53 -11 -53 -16 0 -19 33 -4 42 14 9 12 19 -7 41 -23 24 -45 24 -58 0
-5 -11 -19 -21 -30 -22 -58 -9 -209 -16 -204 -10 4 4 27 9 50 11 24 2 55 8 69
13 14 5 35 8 47 6 17 -3 20 0 16 16 -3 12 -14 20 -27 21 -12 1 -15 3 -6 5 8 3
20 15 26 28 9 20 8 23 -12 22 -12 -1 -31 -9 -42 -19 -28 -26 -58 -21 -83 14
-16 23 -19 33 -10 39 7 4 12 16 11 26 -1 11 -2 21 -1 24 7 19 4 137 -2 133 -5
-3 -7 5 -6 18 4 32 -9 69 -24 70 -7 0 -3 4 8 9 19 8 19 9 -3 9 -13 1 -31 10
-40 21 -16 19 -145 73 -154 65 -2 -2 -4 15 -5 38 0 34 1 37 7 17 9 -29 12 -26
15 15 1 17 -2 36 -8 43 -12 16 5 16 21 0 7 -7 12 -9 12 -4 0 4 -7 14 -16 23
-8 9 -12 23 -9 32 4 9 9 27 12 41 2 13 8 27 12 30 12 8 22 42 11 35 -6 -3 -10
-1 -10 4 0 6 5 11 11 11 5 0 7 6 3 13 -5 9 -4 9 5 1 14 -13 54 -7 45 7 -3 5 1
6 9 3 8 -3 18 0 22 6 5 8 11 8 21 -1 8 -6 14 -8 14 -4 0 4 7 1 16 -6 14 -11
18 -10 30 6 10 14 14 15 14 4 1 -11 4 -10 14 3 7 10 16 15 19 11 4 -3 7 -2 7
4 0 6 9 9 20 6 11 -3 20 -9 20 -14 0 -5 7 -6 16 -2 11 4 23 -1 32 -13 12 -16
14 -16 9 -2 -7 19 -5 18 50 -10 13 -7 30 -12 39 -12 15 0 54 -35 54 -49 0 -3
11 -19 25 -35 22 -26 30 -57 28 -113 -1 -7 3 -10 8 -8 4 3 8 -3 9 -12 3 -74 6
-93 11 -93 8 0 22 -46 24 -82 1 -16 -2 -28 -6 -28 -5 0 -9 -4 -9 -10 0 -5 3
-9 8 -9 19 3 26 -2 13 -10 -18 -11 -6 -65 12 -54 7 4 7 0 -2 -10 -8 -10 -11
-20 -7 -24 3 -3 6 0 6 8 1 10 4 9 11 -4 5 -9 7 -21 4 -26 -3 -6 3 -9 14 -8 14
1 17 5 10 13 -7 8 -6 14 1 19 5 3 10 15 10 25 0 33 22 69 44 73 15 3 13 5 -8
6 l-30 1 30 32 29 32 -28 -18 -28 -17 7 98 c11 159 12 285 4 325 -5 22 -4 36
1 32 14 -8 11 12 -8 51 -9 19 -22 35 -28 35 -7 0 -20 9 -30 20 -10 11 -22 20
-28 20 -5 0 -26 13 -46 28 -43 34 -151 95 -151 86 0 -3 -11 1 -24 10 -14 9
-32 13 -40 10 -9 -3 -16 -2 -16 4 0 9 -36 17 -121 25 -20 2 -40 6 -46 10 -5 3
-17 -2 -26 -11z m-164 -719 c-7 -2 -19 -2 -25 0 -7 3 -2 5 12 5 14 0 19 -2 13
-5z m-87 -32 c-22 -25 -30 -76 -18 -128 5 -24 6 -41 2 -38 -5 3 -11 23 -15 45
-4 22 -12 40 -18 40 -9 0 -9 2 -1 8 6 4 15 18 19 32 7 24 33 60 43 60 3 0 -3
-8 -12 -19z m214 -46 c0 -8 -7 -15 -15 -15 -9 0 -12 6 -9 15 4 8 10 15 15 15
5 0 9 -7 9 -15z m-79 -12 c13 -16 12 -17 -3 -4 -10 7 -18 15 -18 17 0 8 8 3
21 -13z m649 -3 c0 -5 -12 -10 -27 -9 l-28 1 25 8 c14 4 26 8 28 9 1 1 2 -3 2
-9z m-483 -36 c-3 -3 -12 -4 -19 -1 -8 3 -5 6 6 6 11 1 17 -2 13 -5z m-91 -30
c-4 -12 -1 -14 14 -9 11 3 27 2 35 -3 15 -8 15 -10 1 -21 -14 -11 -16 -11 -16
4 0 10 -3 15 -6 12 -6 -6 -13 -71 -17 -159 -2 -28 -5 -34 -14 -26 -9 7 -13 7
-13 -1 0 -19 -75 -13 -93 7 -10 10 -14 22 -10 25 3 4 -1 7 -9 7 -9 0 -18 10
-21 21 -4 17 -3 19 6 10 6 -6 15 -11 20 -11 5 0 2 7 -7 15 -8 8 -18 15 -21 15
-13 0 -65 42 -65 52 0 6 7 5 18 -4 23 -20 52 -30 52 -18 0 6 -6 10 -14 10 -8
0 -17 4 -20 9 -4 5 4 7 16 4 21 -5 21 -4 6 8 -14 11 -15 17 -5 30 16 21 45 31
53 18 3 -6 17 -8 31 -4 14 3 31 1 39 -6 12 -10 13 -9 8 6 -5 12 -4 16 4 11 6
-3 13 -2 17 4 10 16 18 12 11 -6z m-336 -28 c0 -3 -4 -8 -10 -11 -5 -3 -10 -1
-10 4 0 6 5 11 10 11 6 0 10 -2 10 -4z m677 -293 c-6 -43 -24 -80 -41 -86 -9
-4 -16 -14 -16 -22 0 -10 -5 -13 -12 -9 -8 5 -7 0 2 -11 9 -11 10 -16 3 -11
-8 4 -13 2 -13 -4 0 -6 -4 -8 -10 -5 -5 3 -10 -1 -10 -9 0 -9 -7 -16 -15 -16
-8 0 -17 -11 -21 -24 -6 -25 -44 -44 -44 -23 0 9 -2 9 -8 0 -9 -14 -26 -5 -35
19 -4 11 0 22 11 28 14 9 13 10 -6 5 -18 -5 -25 -2 -29 13 -2 11 -14 23 -26
26 -18 4 -19 8 -9 18 10 10 15 10 22 -2 8 -12 10 -11 10 5 1 18 2 18 10 -2 5
-13 16 -23 25 -23 8 0 15 -6 15 -12 0 -9 4 -8 10 2 5 8 10 11 10 6 0 -5 7 -3
15 4 12 10 13 16 3 28 -11 13 -10 15 5 9 9 -3 17 -2 17 4 0 6 5 7 10 4 9 -6
10 -2 10 22 0 4 -19 6 -43 5 -45 -2 -45 -1 23 19 25 7 60 24 79 36 18 13 37
20 42 17 5 -3 9 0 9 5 0 6 2 11 6 11 3 0 3 -12 1 -27z m-137 -18 c-13 -16
-100 -22 -100 -7 0 4 18 8 41 7 22 -1 42 3 45 7 3 4 10 8 16 8 7 0 6 -6 -2
-15z m277 -137 c-3 -8 -6 -5 -6 6 -1 11 2 17 5 13 3 -3 4 -12 1 -19z m-231
-40 c4 -7 4 -10 -1 -6 -4 4 -14 3 -22 -4 -11 -8 -12 -7 -7 6 7 19 20 21 30 4z
m53 -322 c9 -11 9 -16 -1 -22 -7 -4 -10 -4 -6 1 4 4 3 14 -3 22 -6 7 -9 13 -6
13 2 0 10 -6 16 -14z m-242 -72 c-3 -3 -12 -4 -19 -1 -8 3 -5 6 6 6 11 1 17
-2 13 -5z m83 -14 c0 -5 5 -10 11 -10 5 0 7 5 4 10 -3 6 -1 10 5 10 7 0 10 -6
8 -12 -3 -7 -11 -13 -19 -13 -8 0 -17 -4 -21 -10 -4 -5 -6 0 -5 13 1 21 17 32
17 12z m14 -45 c-4 -8 -10 -12 -15 -9 -11 6 -2 24 11 24 5 0 7 -7 4 -15z"/>
<path d="M600 1376 c0 -2 9 -6 20 -9 11 -3 18 -1 14 4 -5 9 -34 13 -34 5z"/>
<path d="M750 1319 c0 -5 5 -7 10 -4 6 3 10 8 10 11 0 2 -4 4 -10 4 -5 0 -10
-5 -10 -11z"/>
<path d="M1065 1059 c-4 -6 -5 -12 -2 -15 2 -3 7 2 10 11 7 17 1 20 -8 4z"/>
<path d="M1072 1644 c-68 -18 -92 -31 -92 -49 0 -8 -4 -15 -10 -15 -6 0 -9 -3
-9 -7 4 -26 -3 -34 -23 -29 l-23 6 23 -11 c12 -7 22 -19 22 -28 0 -14 -2 -14
-10 -1 -8 13 -10 13 -10 -2 0 -9 5 -20 10 -23 6 -4 8 -10 6 -14 -3 -4 0 -13 5
-21 7 -11 8 -7 5 13 -3 18 0 27 9 27 8 0 19 8 24 18 6 9 11 12 11 7 0 -6 -5
-16 -12 -23 -15 -15 -10 -19 35 -25 21 -3 41 -8 45 -12 4 -4 -9 -5 -29 -2 -25
3 -42 0 -59 -13 l-23 -17 22 -36 c11 -19 30 -37 42 -40 18 -5 17 -2 -6 21 -51
51 -50 77 2 68 82 -16 103 -17 103 -7 0 6 -8 11 -17 11 -15 0 -16 2 -3 10 8 5
26 10 40 10 20 0 22 -2 10 -10 -13 -8 -13 -10 2 -10 9 0 23 6 30 13 7 8 19 12
27 9 8 -3 11 0 7 7 -4 6 0 11 9 11 15 0 15 1 1 16 -9 8 -21 24 -27 35 -6 11
-15 17 -22 12 -7 -4 -7 0 2 10 15 18 26 23 16 7 -3 -5 -2 -10 2 -10 5 0 16
-12 25 -27 13 -21 18 -23 18 -10 0 9 -4 17 -9 17 -16 0 -24 42 -11 50 21 13 4
36 -42 59 -51 24 -47 24 -116 5z m96 -61 c-15 -2 -42 -2 -60 0 -18 2 -6 4 27
4 33 0 48 -2 33 -4z m-121 -9 c-3 -3 -12 -4 -19 -1 -8 3 -5 6 6 6 11 1 17 -2
13 -5z m13 -82 c0 -4 -9 -8 -20 -8 -22 0 -27 12 -7 19 14 5 27 -1 27 -11z m75
-2 c-3 -5 -11 -10 -16 -10 -6 0 -7 5 -4 10 3 6 11 10 16 10 6 0 7 -4 4 -10z"/>
<path d="M890 1549 c0 -5 5 -7 10 -4 6 3 10 8 10 11 0 2 -4 4 -10 4 -5 0 -10
-5 -10 -11z"/>
<path d="M1400 1489 c0 -5 5 -7 10 -4 6 3 10 8 10 11 0 2 -4 4 -10 4 -5 0 -10
-5 -10 -11z"/>
<path d="M1410 1460 c0 -5 5 -10 11 -10 5 0 7 5 4 10 -3 6 -8 10 -11 10 -2 0
-4 -4 -4 -10z"/>
<path d="M1280 1389 c0 -5 5 -7 10 -4 6 3 10 8 10 11 0 2 -4 4 -10 4 -5 0 -10
-5 -10 -11z"/>
<path d="M1331 1304 c0 -11 3 -14 6 -6 3 7 2 16 -1 19 -3 4 -6 -2 -5 -13z"/>
<path d="M1060 1180 c0 -5 5 -10 11 -10 5 0 7 5 4 10 -3 6 -8 10 -11 10 -2 0
-4 -4 -4 -10z"/>
<path d="M488 921 c-25 -16 -55 -45 -67 -64 -42 -68 -132 -140 -214 -170 -41
-15 -105 -41 -141 -57 l-66 -30 0 -300 0 -300 370 0 369 0 -25 63 c-15 34 -30
71 -35 82 -26 63 -43 107 -64 165 -45 129 -41 123 -69 105 -13 -9 -26 -12 -29
-8 -2 4 -10 53 -16 108 -7 55 -17 126 -23 157 -6 31 -8 64 -4 73 3 9 2 13 -4
10 -18 -11 -10 34 9 52 19 18 67 130 59 139 -3 2 -25 -9 -50 -25z"/>
<path d="M1294 936 c30 -93 32 -183 7 -321 -25 -140 -28 -185 -14 -205 16 -22
4 -27 -26 -10 -16 8 -21 -1 -45 -92 -15 -55 -41 -141 -57 -192 -16 -50 -29
-97 -29 -103 0 -10 82 -13 375 -13 l375 0 -2 311 -3 311 -90 33 c-308 113
-330 124 -428 228 -38 40 -66 64 -63 53z"/>
<path d="M1200 498 c0 -7 5 -20 10 -28 8 -12 10 -11 10 7 0 12 -4 25 -10 28
-5 3 -10 0 -10 -7z"/>
</g>
</svg>
