<?xml version="1.0" standalone="no"?>
<!DOCTYPE svg PUBLIC "-//W3C//DTD SVG 20010904//EN"
 "http://www.w3.org/TR/2001/REC-SVG-20010904/DTD/svg10.dtd">
<svg version="1.0" xmlns="http://www.w3.org/2000/svg"
 width="433.000000pt" height="576.000000pt" viewBox="0 0 433.000000 576.000000"
 preserveAspectRatio="xMidYMid meet">

<g transform="translate(0.000000,576.000000) scale(0.100000,-0.100000)"
fill="#000000" stroke="none">
<path d="M2476 4505 c-3 -9 -10 -13 -16 -10 -5 3 -10 2 -10 -4 0 -15 39 -24
54 -12 16 13 26 4 26 -24 0 -16 -7 -21 -30 -23 -24 -2 -30 2 -30 17 0 22 -30
37 -41 20 -4 -7 -19 -10 -38 -6 -24 5 -29 3 -24 -8 3 -8 10 -16 17 -16 6 -1
-14 -5 -44 -9 -42 -7 -59 -5 -71 6 -8 8 -27 14 -42 14 -30 0 -77 -19 -77 -32
0 -4 -7 -8 -15 -8 -8 0 -15 -5 -15 -11 0 -6 -7 -9 -15 -5 -16 6 -21 -9 -6 -18
5 -4 6 -18 2 -34 -5 -20 -15 -28 -34 -30 -15 -2 -25 -7 -22 -12 3 -4 -6 -15
-20 -24 -22 -14 -25 -15 -25 -1 0 8 5 15 10 15 6 0 10 9 10 20 0 12 10 24 24
30 13 5 27 13 31 19 3 6 0 9 -8 5 -11 -4 -13 1 -10 19 3 14 0 28 -6 31 -6 4
-11 0 -11 -8 0 -18 -25 -22 -35 -6 -8 13 -72 13 -80 0 -4 -7 5 -9 26 -5 24 4
36 1 51 -15 20 -21 18 -34 -5 -36 -7 0 -20 -2 -29 -2 -17 -2 -17 -4 -1 -37 19
-39 18 -42 -17 -47 -20 -2 -24 1 -22 16 2 11 -1 16 -10 14 -7 -3 -12 -13 -10
-23 2 -10 -1 -21 -8 -25 -7 -4 -4 -15 10 -32 26 -34 25 -48 -2 -45 -21 2 -23
-2 -20 -44 3 -43 1 -47 -24 -53 -17 -5 -30 -3 -35 5 -6 10 -13 10 -34 1 -24
-11 -27 -10 -32 7 -5 20 -29 35 -43 26 -4 -3 -6 -14 -3 -25 4 -15 0 -20 -13
-20 -16 0 -17 2 -4 10 13 8 13 10 -2 10 -10 0 -22 -9 -28 -20 -8 -15 -17 -18
-43 -13 -31 6 -32 6 -14 -14 22 -26 22 -31 -7 -54 -15 -12 -27 -34 -31 -60 -6
-34 -13 -43 -41 -55 -23 -10 -32 -19 -28 -29 4 -8 1 -15 -5 -15 -6 0 -11 4
-11 9 0 6 -15 7 -33 4 -24 -4 -37 0 -51 16 -20 22 -60 28 -71 11 -3 -6 -1 -26
6 -45 12 -32 11 -37 -13 -62 -24 -26 -78 -113 -78 -125 0 -14 39 5 43 21 3 9
5 1 6 -16 0 -18 -3 -33 -8 -33 -4 0 -4 -24 1 -52 5 -29 9 -75 9 -101 -1 -52
19 -93 50 -102 11 -4 27 -21 36 -38 9 -18 36 -51 62 -75 43 -41 45 -44 33 -74
-11 -31 -10 -38 36 -132 2 -4 -5 -5 -17 -1 -16 5 -20 3 -15 -9 3 -9 11 -16 17
-16 6 0 7 -3 4 -7 -4 -3 -2 -12 4 -19 8 -10 -13 -24 -88 -63 -115 -60 -164
-98 -142 -112 12 -8 12 -10 0 -18 -11 -7 -10 -11 7 -20 11 -6 48 -66 82 -133
34 -68 72 -136 83 -152 42 -59 174 -91 257 -62 25 9 51 16 58 16 40 0 98 104
116 206 8 44 17 86 19 94 3 8 8 27 11 42 4 15 17 35 31 44 27 18 65 11 65 -12
0 -8 5 -14 10 -14 6 0 10 -6 10 -14 0 -8 10 -36 22 -63 11 -26 22 -53 24 -60
4 -21 48 -73 62 -73 7 0 12 -6 9 -12 -6 -17 31 -90 42 -84 4 3 14 -7 21 -22 7
-16 15 -22 17 -14 3 6 9 10 14 6 11 -7 12 9 0 22 -11 12 -42 106 -37 111 2 3
21 -6 41 -19 59 -38 101 -137 75 -178 -8 -13 -10 -13 -10 2 0 9 -10 28 -23 41
-26 29 -44 18 -44 -26 0 -42 -18 -54 -76 -56 -99 -2 -287 -70 -287 -105 0 -3
18 -18 40 -32 37 -25 39 -28 25 -44 -8 -9 -16 -27 -16 -41 -1 -13 -3 -17 -5
-9 -3 12 -14 15 -38 12 -21 -2 -38 2 -49 12 -18 19 -37 21 -37 4 0 -9 -3 -9
-12 0 -10 10 -15 3 -23 -30 -7 -29 -7 -45 0 -50 6 -5 5 -8 -2 -8 -7 0 -13 -4
-13 -10 0 -5 7 -10 15 -10 8 0 15 -4 15 -10 0 -5 -4 -10 -10 -10 -25 0 40 -94
148 -213 74 -82 160 -231 149 -259 -11 -30 -250 -178 -421 -261 -81 -39 -259
-86 -327 -87 -26 0 -60 -7 -75 -15 -16 -8 -37 -15 -46 -15 -17 0 -64 -16 -143
-48 -44 -18 -194 -105 -320 -186 -44 -28 -89 -57 -100 -64 -34 -21 -107 -52
-170 -73 -33 -11 -73 -26 -90 -34 -16 -8 -46 -22 -65 -30 -19 -8 -46 -21 -60
-29 -55 -30 -118 -57 -180 -79 l-65 -22 -3 -248 -2 -247 67 0 c49 0 106 11
203 39 227 66 296 90 535 183 127 50 273 105 325 123 87 30 140 52 360 150
106 47 206 85 224 85 33 0 248 72 361 120 199 86 267 112 275 103 4 -4 12
-174 19 -378 6 -203 14 -407 17 -453 l6 -82 969 0 969 0 0 850 c0 766 -2 851
-16 857 -49 18 -303 201 -343 246 -25 28 -59 66 -75 84 -16 18 -33 33 -37 33
-4 0 -30 14 -56 30 -30 19 -76 36 -118 43 -63 12 -70 16 -87 47 -11 19 -29 44
-42 56 -30 26 -52 66 -75 134 -17 49 -18 57 -5 72 21 22 6 29 -51 23 -43 -4
-51 -1 -75 26 -16 16 -30 29 -33 29 -2 0 -10 -28 -17 -62 -15 -77 -39 -151
-52 -159 -5 -3 -9 -9 -9 -13 5 -33 -1 -48 -14 -42 -9 3 -18 -1 -21 -9 -8 -20
-16 -19 -43 6 -27 26 -35 20 -33 -26 1 -19 -2 -35 -6 -36 -81 -12 -119 -1
-124 33 -2 15 -9 22 -21 22 -9 -1 -17 2 -17 7 0 5 5 9 10 9 6 0 10 5 10 10 0
6 -13 10 -29 10 -17 0 -33 -4 -36 -10 -11 -17 -38 -12 -31 6 5 14 4 15 -9 4
-12 -10 -15 -10 -15 3 0 9 5 19 10 22 16 10 12 22 -10 28 -22 6 -38 -9 -18
-16 7 -2 10 -8 6 -12 -4 -4 -16 3 -27 16 -11 13 -20 20 -21 16 0 -5 -13 1 -29
12 -16 12 -38 21 -49 21 -12 0 -23 4 -26 9 -3 5 -17 12 -31 15 -47 12 -138 86
-105 86 5 0 10 4 10 9 0 4 -22 8 -49 7 -28 -1 -48 1 -45 5 2 4 -2 10 -8 13 -9
3 -8 5 2 3 8 -1 58 19 110 45 80 39 99 53 121 90 30 48 36 69 48 182 7 63 14
83 31 96 17 13 20 22 14 44 -5 21 -9 25 -16 14 -7 -9 -8 -2 -4 22 7 40 46 80
79 81 21 0 21 1 2 8 -11 4 -22 19 -25 32 -5 19 -13 25 -45 27 -25 2 -52 15
-79 37 -38 31 -63 39 -156 50 -19 3 -41 12 -47 22 -7 9 -13 13 -13 9 0 -5 -6
-3 -14 3 -10 9 -61 9 -61 1 0 -1 -18 -3 -40 -5 -91 -7 -230 -62 -328 -128 -51
-34 -78 -88 -61 -124 4 -10 9 -22 10 -28 1 -5 3 -12 4 -15 14 -38 5 -47 -62
-63 -23 -6 -29 -2 -52 38 -15 25 -31 45 -35 45 -5 0 -11 8 -13 18 -11 40 -110
79 -220 87 -40 3 -50 0 -64 -18 -15 -21 -16 -15 -11 83 5 102 41 278 71 345
51 112 71 148 117 198 35 39 59 57 75 57 13 0 24 5 24 11 0 6 8 8 19 4 11 -3
22 -1 26 5 3 6 10 8 15 5 4 -3 10 2 14 10 3 9 12 12 22 8 13 -5 16 -3 11 10
-3 9 -2 17 3 17 6 0 10 -5 10 -10 0 -6 11 -15 25 -20 14 -5 28 -16 31 -25 3
-8 11 -12 17 -8 6 4 36 8 67 8 30 1 50 0 44 -2 -7 -2 -9 -13 -7 -25 4 -11 0
-24 -8 -29 -11 -6 -8 -9 9 -9 15 0 22 6 22 19 0 10 7 24 15 31 12 10 15 10 15
-1 0 -10 2 -11 8 -2 5 9 11 8 23 0 21 -16 33 -53 19 -62 -21 -13 -9 -24 16
-13 21 10 31 9 59 -6 21 -12 31 -24 28 -32 -3 -8 0 -21 6 -28 9 -11 9 -15 -1
-19 -7 -3 -3 -6 10 -6 13 -1 22 5 22 13 0 24 38 6 49 -23 8 -23 10 -23 10 -5
1 12 8 27 16 34 8 7 12 17 9 22 -4 6 2 8 15 3 13 -4 21 -2 21 5 0 6 -4 8 -10
5 -14 -8 -13 18 2 50 8 18 14 22 20 13 6 -10 8 -10 8 0 0 6 11 12 25 12 14 0
25 -5 25 -10 0 -14 77 38 84 56 3 9 11 12 16 9 6 -4 17 -1 25 5 8 6 23 9 35 5
21 -7 28 -24 10 -26 -5 -1 -14 -3 -20 -4 -5 -1 -15 -3 -21 -4 -5 0 -8 -5 -4
-11 6 -10 -13 -50 -30 -62 -7 -5 -6 -11 1 -15 7 -5 14 -24 17 -43 7 -54 40
-121 81 -162 20 -20 36 -40 36 -43 0 -3 11 -18 24 -32 14 -15 30 -49 37 -77
14 -60 80 -154 112 -160 12 -3 55 -7 96 -10 114 -8 122 -31 13 -42 l-59 -7 14
-29 c9 -16 13 -40 10 -53 -3 -20 1 -26 27 -35 31 -10 66 -65 66 -102 0 -9 4
-18 9 -20 10 -4 61 -113 61 -131 0 -17 36 -38 54 -31 8 3 18 16 22 27 13 44
48 107 58 104 19 -6 39 -87 28 -110 -14 -30 -13 -87 1 -87 7 0 19 5 27 10 12
8 13 13 3 30 -18 28 -17 30 20 30 34 0 58 18 70 53 4 10 17 17 33 17 31 0 28
-20 -5 -36 -41 -21 -45 -31 -24 -58 17 -21 23 -23 35 -13 28 23 58 76 78 136
20 64 17 110 -14 231 -30 117 -47 140 -107 140 -16 0 -29 5 -29 10 0 15 54 12
76 -5 26 -19 34 -19 34 4 0 10 7 36 16 57 20 47 13 108 -14 137 -19 20 -20 28
-11 87 5 36 10 73 10 83 0 15 3 16 15 7 19 -17 18 -5 -3 27 -12 18 -19 57 -23
125 -6 91 -8 101 -32 121 -14 12 -29 34 -32 49 -3 15 -17 40 -31 55 l-24 28 4
-37 c5 -39 -4 -52 -28 -42 -26 10 -30 37 -7 54 11 9 18 19 13 23 -4 4 -6 27
-4 51 4 68 -30 130 -86 157 -38 18 -44 25 -40 45 4 22 1 24 -42 24 -60 0 -91
9 -91 26 0 8 -4 14 -10 14 -5 0 -10 -4 -10 -10 0 -5 -5 -10 -11 -10 -6 0 -8 8
-4 19 8 26 -28 38 -58 18 -15 -10 -36 -12 -67 -8 -38 5 -44 10 -42 26 2 11 8
23 14 26 5 3 -5 6 -23 7 -23 0 -40 11 -64 36 -31 35 -35 36 -102 36 -58 0 -76
-4 -107 -25 -43 -29 -50 -31 -42 -10 3 8 2 15 -3 15 -4 0 -16 18 -26 41 -18
39 -70 87 -82 75 -3 -3 -12 -1 -18 4 -9 8 -14 6 -19 -5z m81 -114 c-1 -22 -5
-37 -9 -35 -4 2 -9 0 -13 -6 -11 -17 -25 -11 -25 11 0 26 31 80 42 73 4 -3 6
-22 5 -43z m-289 17 c6 -6 12 -19 12 -30 0 -15 -5 -19 -19 -15 -12 3 -22 -1
-25 -10 -4 -8 -13 -13 -21 -9 -8 3 -17 0 -21 -6 -4 -7 -9 -6 -15 3 -6 10 -10
7 -18 -11 -5 -14 -10 -18 -10 -10 -1 22 22 47 37 43 6 -3 12 3 12 12 0 9 -4
13 -10 10 -5 -3 -10 -1 -10 4 0 6 5 11 12 11 6 0 8 3 5 7 -4 3 -16 -2 -27 -12
-14 -12 -20 -14 -20 -5 0 36 81 48 118 18z m212 0 c0 6 5 12 11 12 8 0 8 -5
-1 -15 -14 -17 -40 -20 -40 -4 0 5 -4 7 -10 4 -5 -3 -10 -2 -10 4 0 17 25 18
37 2 8 -11 12 -12 13 -3z m-389 -155 c-9 -17 -10 -17 -16 -1 -4 9 -1 24 7 32
11 12 14 12 16 0 2 -7 -1 -21 -7 -31z m1228 -109 c41 -20 63 -64 59 -116 -3
-46 -23 -61 -33 -26 -11 35 -33 55 -68 62 -18 3 -38 15 -45 26 -11 18 -9 24
12 45 30 29 33 30 75 9z m-1571 -132 c3 -16 -2 -22 -17 -22 -24 0 -33 13 -25
35 9 23 38 14 42 -13z m1566 -46 c-6 -16 -24 -23 -24 -8 0 10 22 33 27 28 2
-2 1 -11 -3 -20z m-1134 -132 c0 -2 -9 -4 -20 -4 -11 0 -20 4 -20 9 0 5 9 7
20 4 11 -3 20 -7 20 -9z m-150 -34 c0 -5 -4 -10 -10 -10 -5 0 -10 5 -10 10 0
6 5 10 10 10 6 0 10 -4 10 -10z m395 -70 c3 -5 1 -10 -4 -10 -6 0 -11 5 -11
10 0 6 2 10 4 10 3 0 8 -4 11 -10z m-1065 -14 c0 -3 -4 -8 -10 -11 -5 -3 -10
-1 -10 4 0 6 5 11 10 11 6 0 10 -2 10 -4z m134 -38 c-4 -67 -26 -95 -65 -83
-14 5 -19 16 -19 44 0 45 14 61 55 61 26 0 30 -4 29 -22z m1319 -41 c4 3 10
-2 13 -12 5 -12 1 -23 -11 -31 -25 -18 -45 -18 -45 1 0 8 -9 15 -20 15 -18 0
-19 -3 -10 -20 8 -14 8 -20 0 -20 -6 0 -15 12 -20 26 -14 37 -13 49 5 34 12
-10 19 -9 37 3 14 9 27 11 34 6 6 -5 14 -6 17 -2z m-1421 -37 c2 -22 0 -40 -4
-40 -14 0 -48 -44 -48 -62 0 -37 -18 -7 -25 41 -7 55 6 88 40 94 11 2 23 5 26
6 4 0 9 -17 11 -39z m-62 -200 c0 -5 -2 -10 -4 -10 -3 0 -8 5 -11 10 -3 6 -1
10 4 10 6 0 11 -4 11 -10z m120 -128 c-7 -3 -19 3 -28 13 -16 15 -15 16 12 4
15 -7 23 -15 16 -17z m20 -32 c0 -5 -7 -7 -15 -4 -8 4 -15 8 -15 10 0 2 7 4
15 4 8 0 15 -4 15 -10z m1314 -125 c-4 -8 -11 -12 -16 -9 -6 4 -5 10 3 15 19
12 19 11 13 -6z m-49 -4 c7 -12 -12 -24 -25 -16 -11 7 -4 25 10 25 5 0 11 -4
15 -9z m754 -163 c9 -15 12 -30 8 -34 -9 -10 -57 35 -57 53 0 23 33 10 49 -19z
m-1934 -36 c-2 -2 5 -23 15 -47 10 -24 16 -46 13 -49 -9 -9 -193 -7 -193 2 0
32 104 103 146 100 13 -1 21 -4 19 -6z m1155 -66 c0 -71 -21 -165 -44 -195
-17 -22 -81 -60 -139 -81 -56 -21 -157 -22 -224 -1 -75 22 -156 100 -132 125
10 11 51 -22 43 -35 -8 -14 9 -10 30 6 11 8 32 15 47 15 15 0 29 3 31 8 2 4
41 17 88 29 130 34 206 66 202 86 -2 11 4 17 16 17 26 0 60 38 41 44 -8 3 -21
5 -29 4 -62 -5 -66 15 -7 35 76 27 77 27 77 -57z m-1034 29 c-21 -16 -32 -13
-21 4 3 6 14 11 23 11 15 -1 15 -2 -2 -15z m-72 -100 c-4 -8 -1 -15 5 -15 6 0
11 -7 11 -15 0 -8 9 -23 20 -32 11 -10 20 -21 20 -26 0 -17 26 -34 64 -40 22
-3 43 -12 48 -19 6 -10 8 -10 8 1 0 8 3 12 6 9 3 -4 15 3 27 15 20 20 22 20
25 4 6 -31 -18 -121 -42 -158 -34 -51 -79 -69 -173 -69 -59 0 -86 5 -109 19
-56 34 -134 203 -134 290 0 40 0 40 43 44 23 2 74 4 114 5 61 2 71 0 67 -13z
m116 -5 c0 -5 -4 -10 -10 -10 -5 0 -10 5 -10 10 0 6 5 10 10 10 6 0 10 -4 10
-10z m620 -489 c0 -28 -10 -31 -31 -10 -23 23 -24 26 -1 32 23 5 32 -1 32 -22z
m871 -78 c-8 -15 -10 -15 -11 -2 0 17 10 32 18 25 2 -3 -1 -13 -7 -23z m-37 2
c3 -8 1 -15 -3 -15 -5 0 -11 7 -15 15 -3 8 -1 15 3 15 5 0 11 -7 15 -15z
m-729 -44 c7 -12 -27 -31 -56 -31 l-22 0 23 20 c25 22 45 26 55 11z m-470 -81
c35 -1 38 -2 20 -12 -11 -6 -38 -12 -60 -13 -34 -2 -41 1 -41 17 0 14 5 18 21
14 11 -3 38 -6 60 -6z m105 -134 c0 -3 -4 -8 -10 -11 -5 -3 -10 -1 -10 4 0 6
5 11 10 11 6 0 10 -2 10 -4z m-121 -52 c24 -31 26 -44 8 -44 -16 0 -59 55 -50
64 11 11 21 6 42 -20z m591 -13 c0 -12 -20 -25 -27 -18 -7 7 6 27 18 27 5 0 9
-4 9 -9z m-452 -156 c20 -14 41 -25 46 -25 5 0 17 -10 27 -21 15 -18 21 -20
34 -9 12 10 15 10 15 -4 0 -17 30 -22 46 -7 15 14 84 23 84 11 0 -5 7 -10 15
-10 25 0 17 -15 -14 -27 -25 -9 -29 -15 -24 -34 6 -23 6 -23 -19 -7 -28 18
-45 13 -27 -9 7 -8 8 -13 1 -13 -12 0 -24 29 -16 41 6 11 -24 24 -34 15 -3 -4
0 -12 8 -17 11 -8 9 -9 -11 -5 -15 3 -40 1 -57 -5 -27 -9 -30 -13 -22 -35 13
-34 -2 -30 -18 5 -10 22 -18 28 -34 23 -18 -4 -20 -2 -15 17 4 16 -4 39 -24
71 -16 26 -29 52 -29 59 0 18 29 13 68 -14z"/>
<path d="M1857 4349 c-4 -16 -3 -18 9 -8 16 13 19 29 5 29 -5 0 -11 -9 -14
-21z"/>
<path d="M1885 4330 c3 -5 11 -10 16 -10 6 0 7 5 4 10 -3 6 -11 10 -16 10 -6
0 -7 -4 -4 -10z"/>
<path d="M1822 4290 c0 -14 2 -19 5 -12 2 6 2 18 0 25 -3 6 -5 1 -5 -13z"/>
<path d="M2960 4299 c0 -5 5 -7 10 -4 6 3 10 8 10 11 0 2 -4 4 -10 4 -5 0 -10
-5 -10 -11z"/>
<path d="M1747 4199 c7 -7 15 -10 18 -7 3 3 -2 9 -12 12 -14 6 -15 5 -6 -5z"/>
<path d="M1880 4190 c-9 -6 -10 -10 -3 -10 6 0 15 5 18 10 8 12 4 12 -15 0z"/>
<path d="M1832 4176 c10 -7 15 -15 13 -18 -3 -3 1 -11 10 -18 12 -10 15 -10
15 2 0 16 -31 48 -46 48 -5 0 -1 -7 8 -14z"/>
<path d="M1251 3564 c0 -11 3 -14 6 -6 3 7 2 16 -1 19 -3 4 -6 -2 -5 -13z"/>
<path d="M3482 2609 c-7 -12 -11 -24 -7 -27 7 -8 25 17 25 36 0 17 -3 15 -18
-9z"/>
<path d="M1815 2409 c-4 -6 -5 -12 -2 -15 2 -3 7 2 10 11 7 17 1 20 -8 4z"/>
<path d="M1788 2305 c-24 -81 -5 -114 36 -59 14 20 16 31 8 47 -5 12 -14 32
-18 45 -8 20 -11 16 -26 -33z"/>
<path d="M3210 2280 c0 -5 5 -10 10 -10 6 0 10 5 10 10 0 6 -4 10 -10 10 -5 0
-10 -4 -10 -10z"/>
<path d="M3035 2210 c3 -5 8 -10 11 -10 2 0 4 5 4 10 0 6 -5 10 -11 10 -5 0
-7 -4 -4 -10z"/>
</g>
</svg>
